Coordinates
version=1
nRows=13
nColumns=38
inDegrees=yes

Units are S.I. units (second, meters, Newtons, ...)
Angles are in degrees.

endheader
time	pelvis_tilt	pelvis_list	pelvis_rotation	pelvis_tx	pelvis_ty	pelvis_tz	hip_flexion_r	hip_adduction_r	hip_rotation_r	knee_angle_r	ankle_angle_r	subtalar_angle_r	mtp_angle_r	hip_flexion_l	hip_adduction_l	hip_rotation_l	knee_angle_l	ankle_angle_l	subtalar_angle_l	mtp_angle_l	lumbar_extension	lumbar_bending	lumbar_rotation	arm_flex_r	arm_add_r	arm_rot_r	elbow_flex_r	pro_sup_r	wrist_flex_r	wrist_dev_r	arm_flex_l	arm_add_l	arm_rot_l	elbow_flex_l	pro_sup_l	wrist_flex_l	wrist_dev_l
      6.88000000	     10.85534717	     -1.04305275	     -1.83404561	     -0.15588338	      0.91377231	     -0.00041899	    -15.77950265	      1.95680907	     -5.63035041	     -2.14145904	      0.58264491	      0.00000000	      0.00000000	    -14.96648388	     -0.24428206	    -11.19039803	     -3.75534461	     -0.68829020	      0.00000000	      0.00000000	    -21.21531192	     -0.66072162	      3.71967010	     -0.06312707	     -2.61634201	    -19.80536454	     33.15883872	    110.12006285	      0.00000000	      0.00000000	      2.56749398	     -2.67084097	    -21.87959527	     31.36417068	    105.42956555	      0.00000000	      0.00000000
      6.89000000	     10.88702058	     -1.04566396	     -1.83692560	     -0.15597506	      0.91380605	     -0.00043604	    -15.81037527	      1.95652547	     -5.63773445	     -2.12906280	      0.58566559	      0.00000000	      0.00000000	    -14.99004024	     -0.24463511	    -11.18801546	     -3.75835347	     -0.67982741	      0.00000000	      0.00000000	    -21.23281619	     -0.66038504	      3.70605695	     -0.07843702	     -2.60607773	    -19.80173933	     33.16646161	    110.14091407	      0.00000000	      0.00000000	      2.53533674	     -2.68984815	    -21.88799489	     31.35864834	    105.43476557	      0.00000000	      0.00000000
      6.90000000	     10.91456124	     -1.04765094	     -1.84051622	     -0.15605607	      0.91383768	     -0.00045096	    -15.83583429	      1.95542791	     -5.64564009	     -2.11932904	      0.58703048	      0.00000000	      0.00000000	    -15.01029074	     -0.24449825	    -11.18700613	     -3.76093010	     -0.67191900	      0.00000000	      0.00000000	    -21.24756951	     -0.66099841	      3.69414896	     -0.09745102	     -2.59649117	    -19.79413426	     33.17591157	    110.16049731	      0.00000000	      0.00000000	      2.50341513	     -2.71094881	    -21.89182673	     31.35426599	    105.44000634	      0.00000000	      0.00000000
      6.91000000	     10.93688416	     -1.04910092	     -1.84665713	     -0.15614643	      0.91387357	     -0.00046889	    -15.85216363	      1.95277693	     -5.65159737	     -2.11453693	      0.58648022	      0.00000000	      0.00000000	    -15.02473649	     -0.24347394	    -11.18868928	     -3.76359183	     -0.66546421	      0.00000000	      0.00000000	    -21.26107548	     -0.66298143	      3.68598134	     -0.11820037	     -2.58767455	    -19.78287367	     33.18730380	    110.17789861	      0.00000000	      0.00000000	      2.47452928	     -2.73335920	    -21.89196577	     31.35155181	    105.44448226	      0.00000000	      0.00000000
      6.92000000	     10.95344283	     -1.05012492	     -1.85655539	     -0.15626346	      0.91391320	     -0.00049025	    -15.85727428	      1.94810792	     -5.65349284	     -2.11643290	      0.58365116	      0.00000000	      0.00000000	    -15.03130611	     -0.24089685	    -11.19355523	     -3.76736965	     -0.66095220	      0.00000000	      0.00000000	    -21.27447356	     -0.66656673	      3.68264238	     -0.13812921	     -2.58019941	    -19.76882025	     33.20036751	    110.19226823	      0.00000000	      0.00000000	      2.45073865	     -2.75578298	    -21.88964003	     31.35097489	    105.44747108	      0.00000000	      0.00000000
      6.93000000	     10.96428982	     -1.05085624	     -1.87040349	     -0.15640966	      0.91394882	     -0.00051020	    -15.85077065	      1.94148243	     -5.65012928	     -2.12564102	      0.57820538	      0.00000000	      0.00000000	    -15.02899147	     -0.23648728	    -11.20111664	     -3.77355809	     -0.65862156	      0.00000000	      0.00000000	    -21.28832364	     -0.67157326	      3.68395546	     -0.15494308	     -2.57477501	    -19.75327581	     33.21431262	    110.20291002	      0.00000000	      0.00000000	      2.43290731	     -2.77687390	    -21.88619030	     31.35285222	    105.44840703	      0.00000000	      0.00000000
      6.94000000	     10.97029594	     -1.05139822	     -1.88738553	     -0.15657886	      0.91397468	     -0.00052694	    -15.83376998	      1.93352884	     -5.64165014	     -2.14126803	      0.57007232	      0.00000000	      0.00000000	    -15.01820744	     -0.23078381	    -11.21015613	     -3.78308199	     -0.65860948	      0.00000000	      0.00000000	    -21.30259166	     -0.67733100	      3.68843434	     -0.16731055	     -2.57169643	    -19.73783474	     33.22785202	    110.20936380	      0.00000000	      0.00000000	      2.42066641	     -2.79578167	    -21.88282309	     31.35722840	    105.44692508	      0.00000000	      0.00000000
      6.95000000	     10.97294615	     -1.05197901	     -1.90575956	     -0.15676549	      0.91399097	     -0.00054438	    -15.80889766	      1.92535077	     -5.62961758	     -2.16111308	      0.55964672	      0.00000000	      0.00000000	    -15.00079863	     -0.22493538	    -11.21925693	     -3.79583433	     -0.66100872	      0.00000000	      0.00000000	    -21.31691833	     -0.68287010	      3.69356828	     -0.17512774	     -2.57048128	    -19.72418758	     33.23941953	    110.21146878	      0.00000000	      0.00000000	      2.41270857	     -2.81246245	    -21.88041784	     31.36377139	    105.44287578	      0.00000000	      0.00000000
      6.96000000	     10.97380955	     -1.05302298	     -1.92298024	     -0.15696134	      0.91400132	     -0.00056469	    -15.78018853	      1.91829768	     -5.61660921	     -2.18238460	      0.54780973	      0.00000000	      0.00000000	    -14.97973642	     -0.22015408	    -11.22733166	     -3.81043556	     -0.66582185	      0.00000000	      0.00000000	    -21.33101623	     -0.68722699	      3.69647769	     -0.17929443	     -2.56992787	    -19.71387909	     33.24752023	    110.20939631	      0.00000000	      0.00000000	      2.40721925	     -2.82759250	    -21.87942481	     31.37176007	    105.43631578	      0.00000000	      0.00000000
      6.97000000	     10.97435057	     -1.05490159	     -1.93622851	     -0.15715078	      0.91401056	     -0.00058654	    -15.75242998	      1.91358863	     -5.60540630	     -2.20248403	      0.53574612	      0.00000000	      0.00000000	    -14.95849937	     -0.21736052	    -11.23387863	     -3.82461394	     -0.67288180	      0.00000000	      0.00000000	    -21.34476513	     -0.68971834	      3.69478162	     -0.18117061	     -2.56853104	    -19.70805099	     33.25108953	    110.20364155	      0.00000000	      0.00000000	      2.40230080	     -2.84218225	    -21.87985637	     31.38021524	    105.42747971	      0.00000000	      0.00000000
      6.98000000	     10.97588213	     -1.05760973	     -1.94331791	     -0.15731853	      0.91402294	     -0.00061172	    -15.72995681	      1.91189633	     -5.59808494	     -2.21946659	      0.52464134	      0.00000000	      0.00000000	    -14.94033609	     -0.21710183	    -11.23889327	     -3.83614710	     -0.68184173	      0.00000000	      0.00000000	    -21.35804847	     -0.69006718	      3.68733310	     -0.18202230	     -2.56505868	    -19.70722925	     33.24973453	    110.19496868	      0.00000000	      0.00000000	      2.39636541	     -2.85712800	    -21.88134911	     31.38815708	    105.41673814	      0.00000000	      0.00000000
      6.99000000	     10.97928088	     -1.06074691	     -1.94346251	     -0.15745590	      0.91403821	     -0.00064148	    -15.71537122	      1.91312319	     -5.59539128	     -2.23207491	      0.51537419	      0.00000000	      0.00000000	    -14.92748337	     -0.21946970	    -11.24257696	     -3.84383797	     -0.69225676	      0.00000000	      0.00000000	    -21.37073188	     -0.68834018	      3.67452162	     -0.18272653	     -2.55906497	    -19.71122004	     33.24378294	    110.18431593	      0.00000000	      0.00000000	      2.38849772	     -2.87288716	    -21.88326885	     31.39489449	    105.40454532	      0.00000000	      0.00000000
      7.00000000	     10.98467370	     -1.06385463	     -1.93758602	     -0.15756052	      0.91405270	     -0.00067014	    -15.70879805	      1.91662965	     -5.59665174	     -2.23955820	      0.50830326	      0.00000000	      0.00000000	    -14.92041550	     -0.22397901	    -11.24507355	     -3.84786027	     -0.70365995	      0.00000000	      0.00000000	    -21.38280960	     -0.68488654	      3.65802295	     -0.18382886	     -2.55109649	    -19.71915321	     33.23415405	    110.17267685	      0.00000000	      0.00000000	      2.37870152	     -2.88935349	    -21.88483840	     31.40021429	    105.39138071	      0.00000000	      0.00000000
